<svg width="35" height="42" viewBox="0 0 35 42" fill="none" xmlns="http://www.w3.org/2000/svg">
<path d="M28.7927 6.17859C27.3967 2.09158 23.5577 0 17.849 0H0V0.60103L6.05769 6.44304H23.458C25.1531 6.44304 26.6489 6.63537 27.9452 6.99599C28.1944 7.90955 28.3191 8.89524 28.3191 10.0011C28.3191 15.6749 23.807 18.9204 17.849 18.9204H2.74217L2.71724 36.8071L8.10185 41.9519L8.1517 42H9.17379V25.3635H22.9345C29.9395 25.3635 35 21.8775 35 15.4345C34.9751 10.6262 32.7564 7.54894 28.7927 6.17859ZM23.433 5.40927H6.20726L1.67022 1.03377H17.8241C22.9095 1.03377 26.1254 2.71665 27.4964 5.84201C26.2999 5.55352 24.9288 5.40927 23.433 5.40927ZM3.53988 36.3984V20.5312L8.07692 24.9067V40.7499L3.53988 36.3984ZM23.433 24.3057L8.77492 24.3537L8.70014 24.2816L4.06339 19.81L17.3255 19.9302C24.5798 19.9302 29.391 16.6606 29.391 10.0011C29.391 9.06353 29.3162 8.19805 29.1417 7.40469C32.3575 8.751 33.953 11.4677 33.953 15.3864C33.9031 21.0841 29.391 24.3057 23.433 24.3057Z" fill="white"/>
</svg>